HIERARCHY
ROOT Hips
{
	OFFSET 0.000000 100.481300 0.000000
	CHANNELS 6 Xposition Yposition Zposition Xrotation Yrotation Zrotation 
	JOINT Spine
	{
		OFFSET -0.279200 12.230698 -2.892100
		CHANNELS 3 Xrotation Yrotation Zrotation
		JOINT Spine1
		{
			OFFSET -0.232667 10.192268 -1.242267
			CHANNELS 3 Xrotation Yrotation Zrotation
			JOINT Spine1_split
			{
				OFFSET -0.232667 10.192268 -1.242267
				CHANNELS 3 Xrotation Yrotation Zrotation
				JOINT Spine2
				{
					OFFSET -0.232667 10.192268 -1.242267
					CHANNELS 3 Xrotation Yrotation Zrotation
					JOINT Neck
					{
						OFFSET -0.418800 17.814194 8.416900
						CHANNELS 3 Xrotation Yrotation Zrotation
						JOINT Head
						{
							OFFSET 0.000000 7.031097 3.806800
							CHANNELS 3 Xrotation Yrotation Zrotation
							JOINT HeadTop_End
							{
								OFFSET 0.000000 24.646606 12.978600
								CHANNELS 3 Xrotation Yrotation Zrotation
								End Site
								{
									OFFSET 0.000000 0.000000 0.000000
								}
							}
						}
					}
					JOINT LeftShoulder
					{
						OFFSET 8.476499 7.247704 -3.868750
						CHANNELS 3 Xrotation Yrotation Zrotation
						JOINT LeftShoulder_split
						{
							OFFSET 8.476499 7.247704 -3.868750
							CHANNELS 3 Xrotation Yrotation Zrotation
							JOINT LeftArm
							{
								OFFSET 9.308998 -2.777710 0.208600
								CHANNELS 3 Xrotation Yrotation Zrotation
								JOINT LeftForeArm
								{
									OFFSET 29.972298 0.000000 0.000000
									CHANNELS 3 Xrotation Yrotation Zrotation
									JOINT LeftHand
									{
										OFFSET 26.026505 0.000000 0.000000
										CHANNELS 3 Xrotation Yrotation Zrotation
										JOINT LeftHandThumb1
										{
											OFFSET 12.240501 -7.147949 9.207150
											CHANNELS 3 Xrotation Yrotation Zrotation
											JOINT LeftHandThumb2
											{
												OFFSET 4.138618 -2.389435 2.389433
												CHANNELS 3 Xrotation Yrotation Zrotation
												JOINT LeftHandThumb3
												{
													OFFSET 2.726913 -1.574387 1.574386
													CHANNELS 3 Xrotation Yrotation Zrotation
													JOINT LeftHandThumb4
													{
														OFFSET 3.941010 -2.275345 2.275342
														CHANNELS 3 Xrotation Yrotation Zrotation
														End Site
														{
															OFFSET 0.000000 0.000000 0.000000
														}
													}
												}
											}
										}
										JOINT LeftHandIndex1
										{
											OFFSET 24.424698 -1.985611 5.953459
											CHANNELS 3 Xrotation Yrotation Zrotation
											JOINT LeftHandIndex2
											{
												OFFSET 6.426697 0.000000 0.000000
												CHANNELS 3 Xrotation Yrotation Zrotation
												JOINT LeftHandIndex3
												{
													OFFSET 5.337898 0.000000 0.000000
													CHANNELS 3 Xrotation Yrotation Zrotation
													JOINT LeftHandIndex4
													{
														OFFSET 4.409401 0.000000 0.000000
														CHANNELS 3 Xrotation Yrotation Zrotation
														End Site
														{
															OFFSET 0.000000 0.000000 0.000000
														}
													}
												}
											}
										}
										JOINT LeftHandMiddle1
										{
											OFFSET 23.810104 0.000000 0.000000
											CHANNELS 3 Xrotation Yrotation Zrotation
											JOINT LeftHandMiddle2
											{
												OFFSET 7.176498 0.000000 0.000000
												CHANNELS 3 Xrotation Yrotation Zrotation
												JOINT LeftHandMiddle3
												{
													OFFSET 6.774902 0.000000 0.000000
													CHANNELS 3 Xrotation Yrotation Zrotation
													JOINT LeftHandMiddle4
													{
														OFFSET 5.403328 0.000000 0.000000
														CHANNELS 3 Xrotation Yrotation Zrotation
														End Site
														{
															OFFSET 0.000000 0.000000 0.000000
														}
													}
												}
											}
										}
										JOINT LeftHandRing1
										{
											OFFSET 22.908401 -0.839279 -6.020567
											CHANNELS 3 Xrotation Yrotation Zrotation
											JOINT LeftHandRing2
											{
												OFFSET 6.337502 0.000000 0.000000
												CHANNELS 3 Xrotation Yrotation Zrotation
												JOINT LeftHandRing3
												{
													OFFSET 5.779297 0.000000 0.000000
													CHANNELS 3 Xrotation Yrotation Zrotation
													JOINT LeftHandRing4
													{
														OFFSET 4.965698 0.000000 0.000000
														CHANNELS 3 Xrotation Yrotation Zrotation
														End Site
														{
															OFFSET 0.000000 0.000000 0.000000
														}
													}
												}
											}
										}
										JOINT LeftHandPinky1
										{
											OFFSET 20.037003 -1.530319 -10.950146
											CHANNELS 3 Xrotation Yrotation Zrotation
											JOINT LeftHandPinky2
											{
												OFFSET 5.254700 0.000000 0.000000
												CHANNELS 3 Xrotation Yrotation Zrotation
												JOINT LeftHandPinky3
												{
													OFFSET 4.810204 0.000000 0.000000
													CHANNELS 3 Xrotation Yrotation Zrotation
													JOINT LeftHandPinky4
													{
														OFFSET 3.647202 0.000000 0.000000
														CHANNELS 3 Xrotation Yrotation Zrotation
														End Site
														{
															OFFSET 0.000000 0.000000 0.000000
														}
													}
												}
											}
										}
									}
								}
							}
						}
					}
					JOINT RightShoulder
					{
						OFFSET -7.570500 7.247704 -3.868750
						CHANNELS 3 Xrotation Yrotation Zrotation
						JOINT RightShoulder_split
						{
							OFFSET -7.570500 7.247704 -3.868750
							CHANNELS 3 Xrotation Yrotation Zrotation
							JOINT RightArm
							{
								OFFSET -9.308998 -2.777710 0.208500
								CHANNELS 3 Xrotation Yrotation Zrotation
								JOINT RightForeArm
								{
									OFFSET -29.972300 0.000000 0.000000
									CHANNELS 3 Xrotation Yrotation Zrotation
									JOINT RightHand
									{
										OFFSET -26.026505 0.000000 0.000000
										CHANNELS 3 Xrotation Yrotation Zrotation
										JOINT RightHandThumb1
										{
											OFFSET -12.240601 -7.148026 9.207092
											CHANNELS 3 Xrotation Yrotation Zrotation
											JOINT RightHandThumb2
											{
												OFFSET -4.138618 -2.389435 2.389433
												CHANNELS 3 Xrotation Yrotation Zrotation
												JOINT RightHandThumb3
												{
													OFFSET -2.726974 -1.574417 1.574421
													CHANNELS 3 Xrotation Yrotation Zrotation
													JOINT RightHandThumb4
													{
														OFFSET -3.941010 -2.275345 2.275343
														CHANNELS 3 Xrotation Yrotation Zrotation
														End Site
														{
															OFFSET 0.000000 0.000000 0.000000
														}
													}
												}
											}
										}
										JOINT RightHandIndex1
										{
											OFFSET -24.424698 -1.985657 5.953444
											CHANNELS 3 Xrotation Yrotation Zrotation
											JOINT RightHandIndex2
											{
												OFFSET -6.426697 0.000000 0.000000
												CHANNELS 3 Xrotation Yrotation Zrotation
												JOINT RightHandIndex3
												{
													OFFSET -5.337898 0.000000 0.000000
													CHANNELS 3 Xrotation Yrotation Zrotation
													JOINT RightHandIndex4
													{
														OFFSET -4.409401 0.000000 0.000000
														CHANNELS 3 Xrotation Yrotation Zrotation
														End Site
														{
															OFFSET 0.000000 0.000000 0.000000
														}
													}
												}
											}
										}
										JOINT RightHandMiddle1
										{
											OFFSET -23.810097 0.000000 0.000000
											CHANNELS 3 Xrotation Yrotation Zrotation
											JOINT RightHandMiddle2
											{
												OFFSET -7.176498 0.000000 0.000000
												CHANNELS 3 Xrotation Yrotation Zrotation
												JOINT RightHandMiddle3
												{
													OFFSET -6.774902 0.000000 0.000000
													CHANNELS 3 Xrotation Yrotation Zrotation
													JOINT RightHandMiddle4
													{
														OFFSET -5.403328 0.000000 0.000000
														CHANNELS 3 Xrotation Yrotation Zrotation
														End Site
														{
															OFFSET 0.000000 0.000000 0.000000
														}
													}
												}
											}
										}
										JOINT RightHandRing1
										{
											OFFSET -22.908302 -0.839325 -6.020576
											CHANNELS 3 Xrotation Yrotation Zrotation
											JOINT RightHandRing2
											{
												OFFSET -6.337502 0.000000 0.000000
												CHANNELS 3 Xrotation Yrotation Zrotation
												JOINT RightHandRing3
												{
													OFFSET -5.779297 0.000000 0.000000
													CHANNELS 3 Xrotation Yrotation Zrotation
													JOINT RightHandRing4
													{
														OFFSET -4.965698 0.000000 0.000000
														CHANNELS 3 Xrotation Yrotation Zrotation
														End Site
														{
															OFFSET 0.000000 0.000000 0.000000
														}
													}
												}
											}
										}
										JOINT RightHandPinky1
										{
											OFFSET -20.037003 -1.530334 -10.950259
											CHANNELS 3 Xrotation Yrotation Zrotation
											JOINT RightHandPinky2
											{
												OFFSET -5.254700 0.000000 0.000000
												CHANNELS 3 Xrotation Yrotation Zrotation
												JOINT RightHandPinky3
												{
													OFFSET -4.810204 0.000000 0.000000
													CHANNELS 3 Xrotation Yrotation Zrotation
													JOINT RightHandPinky4
													{
														OFFSET -3.647202 0.000000 0.000000
														CHANNELS 3 Xrotation Yrotation Zrotation
														End Site
														{
															OFFSET 0.000000 0.000000 0.000000
														}
													}
												}
											}
										}
									}
								}
							}
						}
					}
				}
			}
		}
	}
	JOINT LeftUpLeg
	{
		OFFSET 15.427100 -6.655098 0.678600
		CHANNELS 3 Xrotation Yrotation Zrotation
		JOINT LeftLeg
		{
			OFFSET 4.081073 -39.591068 13.024000
			CHANNELS 3 Xrotation Yrotation Zrotation
			JOINT LeftFoot
			{
				OFFSET -4.081074 -37.707932 -15.979700
				CHANNELS 3 Xrotation Yrotation Zrotation
				JOINT LeftToeBase
				{
					OFFSET 5.346399 -15.068900 20.645000
					CHANNELS 3 Xrotation Yrotation Zrotation
					JOINT LeftToe_End
					{
						OFFSET 2.754700 0.931300 11.300900
						CHANNELS 3 Xrotation Yrotation Zrotation
						End Site
						{
							OFFSET 0.000000 0.000000 0.000000
						}
					}
				}
			}
		}
	}
	JOINT RightUpLeg
	{
		OFFSET -15.569500 -6.655098 0.678600
		CHANNELS 3 Xrotation Yrotation Zrotation
		JOINT RightLeg
		{
			OFFSET -4.081825 -39.591045 13.023800
			CHANNELS 3 Xrotation Yrotation Zrotation
			JOINT RightFoot
			{
				OFFSET 4.081824 -37.707954 -15.979600
				CHANNELS 3 Xrotation Yrotation Zrotation
				JOINT RightToeBase
				{
					OFFSET -5.346400 -15.068900 20.645000
					CHANNELS 3 Xrotation Yrotation Zrotation
					JOINT RightToe_End
					{
						OFFSET -2.754700 0.931300 11.300900
						CHANNELS 3 Xrotation Yrotation Zrotation
						End Site
						{
							OFFSET 0.000000 0.000000 0.000000
						}
					}
				}
			}
		}
	}
}
MOTION
Frames: 4
Frame Time: 0.016667
13.614344 77.610550 1.318909 9.502231 -0.422968 -9.716703 8.455426 -3.592474 -7.794125 6.795706 -2.703226 -6.539372 0.000000 0.000000 0.000000 6.822725 -2.529053 -6.561654 -6.756032 -0.095608 -6.250963 -31.736764 -12.121322 11.385203 0.000000 -0.000001 -0.000001 0.657406 -5.474603 -9.273256 0.000000 0.000000 0.000000 -31.650875 6.573780 -19.060521 0.000022 -57.717257 0.000033 -13.439161 -6.592298 17.306764 -6.000711 -6.126803 4.616764 7.611092 24.884949 2.404812 -4.383182 25.960695 19.454317 -0.000001 -0.000001 -0.000002 2.912876 7.374273 -59.057961 2.905712 5.057885 -59.732238 2.014368 4.420861 -48.976035 -0.000001 0.000001 0.000000 2.252969 6.917810 -51.180779 3.608298 5.405548 -67.425852 1.924287 4.341072 -47.796691 0.000002 0.000000 0.000004 3.218386 7.543764 -62.485378 3.684681 5.436519 -68.234314 3.234225 5.235075 -63.393246 -0.000001 -0.000005 0.000001 3.994140 7.875994 -70.768806 2.411828 4.736415 -53.951760 3.058963 5.143937 -61.455870 0.000002 0.000003 -0.000000 0.361050 -0.787757 2.746802 0.000000 0.000000 0.000000 26.141057 -12.666240 76.530794 0.000110 79.226786 -0.000094 -6.073265 16.835009 -10.845140 -7.540276 -3.885186 -4.751912 7.955467 -28.077799 -3.121257 -4.006990 -18.468391 -17.389969 -0.000000 -0.000000 0.000001 0.055200 3.456516 6.528616 0.319248 -1.696231 21.316693 0.153004 -1.185129 14.711309 0.000001 -0.000001 0.000000 -0.862794 -0.131506 17.725500 0.409666 -1.911715 24.188107 0.700073 -2.457683 31.794893 -0.000000 -0.000002 -0.000001 2.184500 -6.710181 36.224192 0.531180 -2.161841 27.606153 0.891012 -2.741550 36.002842 0.000001 -0.000002 -0.000005 6.372298 -15.465772 52.716981 0.699899 -2.457410 31.790938 1.139159 -3.053612 40.908701 0.000002 0.000002 -0.000000 -54.165381 -9.852504 29.151760 48.837762 -5.006262 -3.966623 -1.358111 3.770281 -12.330034 0.422636 0.000713 -0.305868 -0.000000 0.000000 0.000000 -38.133008 -26.057061 2.565398 50.966004 6.340635 -0.356137 -23.044657 -19.870893 -7.814248 -0.000068 0.000003 -0.000007 -0.000000 -0.000002 0.000000 
13.690700 77.040115 0.788783 9.252850 -1.493120 -9.423061 8.947097 -3.255211 -7.511682 7.111679 -2.571605 -6.414007 0.000000 0.000000 0.000000 7.134266 -2.411996 -6.415063 -6.827574 -0.078845 -6.203642 -31.801487 -11.665237 10.997516 0.000000 0.000000 -0.000000 0.636249 -5.572578 -9.846495 0.000000 0.000000 0.000000 -30.413084 9.620332 -20.356781 0.000009 -56.737005 0.000030 -14.343215 -6.360681 17.068858 -6.000714 -6.126804 4.616765 7.611091 24.884952 2.404811 -4.383184 25.960690 19.454317 0.000000 0.000001 -0.000002 2.751047 7.274456 -57.192869 2.743419 4.959996 -57.873607 1.873403 4.294508 -47.120884 -0.000002 -0.000001 0.000001 2.121146 6.809319 -49.506195 3.475098 5.348478 -66.004612 1.905575 4.324069 -47.548922 0.000000 0.000002 0.000002 3.090082 7.475477 -61.059815 3.661143 5.427112 -67.985736 3.289398 5.262227 -63.996414 0.000001 -0.000001 -0.000001 3.970088 7.867616 -70.519176 2.461739 4.772217 -54.554015 3.157298 5.195998 -62.547013 0.000001 -0.000002 0.000001 0.435993 -0.154701 3.207687 0.000000 0.000000 0.000000 23.731620 -11.004977 75.385290 -0.000002 77.036324 -0.000010 -6.027874 16.951336 -10.577466 -7.540273 -3.885185 -4.751912 7.955464 -28.077794 -3.121257 -4.006991 -18.468391 -17.389972 -0.000000 -0.000002 -0.000000 0.053069 3.449673 6.560489 0.320765 -1.700106 21.368023 0.154058 -1.189173 14.762566 -0.000001 0.000002 -0.000002 -0.863768 -0.045917 17.352789 0.369561 -1.819830 22.956440 0.625855 -2.333815 30.019569 -0.000001 0.000000 0.000000 2.141062 -6.687486 35.625823 0.466198 -2.032808 25.830589 0.788271 -2.594441 33.796018 0.000001 -0.000002 -0.000002 6.464553 -15.829402 52.143566 0.608262 -2.303136 29.584719 1.008135 -2.895695 38.384133 -0.000001 0.000000 0.000001 -54.242398 -10.247061 29.615506 49.806477 -4.496066 -4.103634 -1.553908 3.868077 -12.547780 0.321017 0.000417 -0.232941 -0.000000 -0.000001 -0.000000 -39.347067 -25.152460 2.723461 52.027716 6.329964 -0.395291 -22.810872 -20.001898 -8.059685 -0.000032 0.000003 0.000001 -0.000000 0.000000 -0.000000 
13.759785 76.601852 0.516821 8.977808 -2.874051 -9.112394 9.398249 -2.915516 -7.235159 7.403570 -2.428329 -6.253433 0.000000 0.000000 0.000000 7.422357 -2.272617 -6.260116 -6.781092 -0.061878 -6.124017 -31.448199 -11.031246 10.615889 -0.000000 0.000000 0.000000 0.598241 -5.646888 -10.458240 0.000000 0.000000 0.000000 -29.130067 12.344777 -22.295090 0.000014 -55.646965 0.000030 -14.802857 -6.104331 16.567027 -6.000715 -6.126811 4.616761 7.611092 24.884947 2.404818 -4.383179 25.960695 19.454320 0.000001 0.000001 -0.000002 2.566450 7.151413 -55.016614 2.558143 4.839169 -55.704704 1.714158 4.141355 -44.956093 0.000000 -0.000000 0.000000 1.968710 6.675444 -47.516267 3.314510 5.274373 -64.269812 1.852162 4.274754 -46.836697 0.000000 0.000001 0.000000 2.935863 7.387860 -59.319981 3.593723 5.399483 -67.271162 3.297920 5.266373 -64.089304 0.000000 -0.000000 0.000003 3.901174 7.842994 -69.801549 2.469464 4.777694 -54.646783 3.232720 5.234335 -63.376745 0.000001 0.000000 0.000001 0.490288 0.534002 3.685334 0.000000 0.000000 0.000000 21.315668 -9.569354 74.194310 0.000042 75.301347 -0.000041 -5.901946 17.065883 -10.420044 -7.540274 -3.885185 -4.751915 7.955467 -28.077799 -3.121253 -4.006990 -18.468393 -17.389974 -0.000000 -0.000001 -0.000001 0.047254 3.429601 6.654579 0.325283 -1.711593 21.519454 0.157209 -1.201064 14.913797 -0.000001 -0.000001 -0.000000 -0.863918 -0.016329 17.224351 0.341039 -1.751018 22.041125 0.565504 -2.226209 28.502851 0.000001 0.000002 0.000003 2.108124 -6.669264 35.181212 0.413863 -1.921019 24.313658 0.699895 -2.457389 31.790665 -0.000000 -0.000001 -0.000004 6.538804 -16.144233 51.652349 0.530193 -2.159938 27.579930 0.891070 -2.741629 36.003915 0.000001 0.000000 -0.000002 -53.718335 -10.599977 30.417988 50.759719 -3.616444 -4.280492 -2.067185 4.036466 -13.055604 0.230895 0.000219 -0.168168 -0.000000 -0.000000 0.000000 -40.171153 -24.444255 3.056004 52.827374 6.617611 -0.461966 -22.602010 -19.933730 -8.451784 -0.000062 0.000022 -0.000002 -0.000000 0.000000 0.000000 
13.786804 76.209023 0.300548 8.781704 -3.972998 -8.853990 9.769041 -2.635693 -7.009945 7.641414 -2.286364 -6.122385 0.000000 0.000000 0.000000 7.656622 -2.105080 -6.121619 -6.723329 -0.048808 -5.995126 -31.190045 -10.624252 10.322449 0.000000 0.000000 0.000001 0.557997 -5.698689 -11.061483 0.000000 0.000000 0.000000 -27.972084 14.186038 -24.353202 -0.000009 -54.075134 -0.000010 -14.800736 -5.737574 15.942807 -6.000712 -6.126809 4.616767 7.611093 24.884949 2.404817 -4.383182 25.960699 19.454327 0.000002 0.000003 0.000000 2.366248 7.006023 -52.589294 2.357027 4.696168 -53.285342 1.543501 3.963502 -42.541369 0.000001 0.000003 -0.000002 1.801738 6.517419 -45.261290 3.131650 5.182662 -62.263588 1.768718 4.195144 -45.706591 0.000000 0.000001 -0.000001 2.760945 7.280765 -57.308067 3.487477 5.353936 -66.137261 3.275144 5.255293 -63.840870 0.000003 -0.000003 0.000000 3.792462 7.802149 -68.662806 2.448849 4.763035 -54.398714 3.280955 5.258141 -63.904336 0.000001 -0.000002 0.000003 0.544763 1.131270 4.238590 0.000000 0.000000 0.000000 19.483451 -8.250642 73.006656 -0.000026 73.739050 0.000030 -5.737835 17.098176 -10.273481 -7.540277 -3.885187 -4.751911 7.955464 -28.077794 -3.121260 -4.006990 -18.468393 -17.389971 0.000000 0.000001 -0.000000 0.037149 3.396646 6.808491 0.332716 -1.730330 21.767186 0.162443 -1.220516 15.161138 -0.000003 0.000001 0.000001 -0.863996 -0.023501 17.257059 0.323832 -1.707922 21.470910 0.518696 -2.137802 27.273413 0.000001 0.000001 0.000002 2.087603 -6.657674 34.904217 0.373621 -1.829399 23.084009 0.625679 -2.333526 30.015440 0.000001 -0.000000 0.000000 6.595907 -16.402351 51.253255 0.465289 -2.030945 25.805165 0.788308 -2.594483 33.796729 0.000001 0.000001 0.000003 -53.459416 -10.828264 30.962969 51.717851 -2.887456 -4.402907 -2.537498 4.123346 -13.210429 0.165453 0.000112 -0.121402 -0.000000 -0.000000 -0.000000 -40.885345 -23.698188 3.387025 53.541365 6.671411 -0.513795 -22.464627 -19.924859 -8.667584 -0.000062 -0.000007 -0.000002 -0.000000 0.000000 0.000000 
